<?xml version="1.0" encoding="utf-8"?>
<svg width="261" height="60" viewBox="0 0 261 80" fill="none" class="svg replaced-svg" xmlns="http://www.w3.org/2000/svg" xmlns:bx="https://boxy-svg.com">
  <g>
    <g>
      <g>
        <g>
          <path fill-rule="evenodd" clip-rule="evenodd" d="M 51.83 33.668 C 51.835 31.546 52.701 29.62 54.108 28.244 C 55.515 29.62 56.386 31.541 56.386 33.668 C 56.386 35.344 55.845 36.889 54.932 38.143 C 54.183 37.124 54.155 35.063 54.108 33.668 C 53.76 35.175 53.68 36.537 53.812 37.697 C 53.398 36.288 52.635 34.94 51.835 34.062 C 51.83 33.931 51.826 33.799 51.83 33.668 Z M 51.091 34.142 C 49.595 32.644 47.628 31.902 45.67 31.931 C 45.618 35.701 48.334 38.941 52.042 39.514 C 51.854 38.26 50.428 36.781 49.477 35.767 C 50.447 36.373 51.256 37.03 51.906 37.702 C 53.026 38.927 53.576 40.228 53.115 41.364 C 52.837 42.045 51.463 41.89 50.602 42.735 C 49.731 43.59 49.11 45.069 49.129 46.389 C 51.364 46.421 53.369 44.961 54.019 42.796 L 54.005 42.839 C 54.405 41.829 54.023 41.341 55.2 39.951 C 55.586 39.589 56.038 39.237 56.565 38.908 C 55.929 39.589 54.974 40.58 54.847 41.416 C 57.332 41.035 59.153 38.861 59.116 36.34 C 57.803 36.321 56.452 36.852 55.487 37.824 C 53.732 39.589 54.494 41.327 53.369 42.458 C 52.927 42.933 52.362 43.393 51.684 43.82 C 52.113 43.36 52.682 42.768 53.049 42.167 C 54.475 39.847 52.8 35.847 51.091 34.142 Z M 47.646 37.871 C 45.533 37.875 43.623 38.749 42.258 40.162 C 43.623 41.575 45.533 42.454 47.646 42.454 C 49.312 42.454 50.847 41.909 52.094 40.989 C 51.077 40.237 49.03 40.204 47.646 40.162 C 49.171 39.805 50.55 39.73 51.713 39.876 C 50.202 39.603 48.87 38.885 47.83 37.875 C 47.769 37.875 47.708 37.871 47.646 37.871 Z M 70.025 40.791 C 74.825 43.759 76.105 45.773 73.87 46.83 C 71.131 48.558 70.721 50.309 72.641 52.08 C 73.244 52.793 73.201 53.512 72.514 54.235 C 72.086 54.728 72.124 55.146 72.622 55.489 C 73.244 56.409 73.051 57.207 72.039 57.883 C 71.54 58.517 71.422 59.607 71.691 61.142 C 71.949 64.871 70.213 66.505 66.49 66.04 C 54.908 64.481 49.167 64.424 49.134 73.595 C 39.025 64.349 44.493 55.93 50.075 47.91 C 53.139 47.238 55.332 45.501 56.762 43.092 C 48.451 57.456 44.446 60.325 47.797 70.163 C 45.42 57.447 70.072 44.651 53.774 17.238 C 69.469 25.164 65.464 37.039 70.025 40.791 Z" clip-path="url(#clip0_596_13)" style="fill: rgb(223, 73, 124);"/>
          <text style="fill: rgb(51, 63, 72); font-family: &quot;Dancing Script&quot;; font-size: 93.8566px; font-style: italic; white-space: pre;" transform="matrix(0.19178, 0, 0, 0.191782, 98.635094, 73.054558)">Beauty i Spa Centar</text>
        </g>
      </g>
    </g>
  </g>
  <text style="fill: rgb(51, 63, 72); font-family: &quot;Dancing Script&quot;; font-size: 260.713px; line-height: 383.769px; white-space: pre;" transform="matrix(0.19178, 0, 0, 0.191782, 98.7826, 44.729889)">Pasagge</text>
  <path fill-rule="evenodd" clip-rule="evenodd" d="M 36.257 18.332 C 37.118 17.571 38.012 16.815 38.954 16.064 C 42.954 11.88 43.533 6.522 40.695 0 C 40.158 2.625 39.001 5.076 37.207 7.353 C 35.127 9.025 34.431 11.725 35.127 15.444 C 37.024 14.12 38.737 11.49 40.271 7.551 C 38.13 15.998 34.483 16.294 29.522 21.854 C 29.776 17.975 27.856 14.458 22.369 12.631 C 23.767 14.049 24.454 15.482 24.435 16.928 C 24.232 19.642 25.503 21.408 27.32 21.995 C 27.503 20.835 27.433 19.205 27.028 17.581 C 28.148 20.36 28.374 21.887 28.27 23.328 C 28.167 23.586 23.136 28.93 20.679 39.232 C 17.258 31.367 10.415 26.61 0 31.884 C 3.003 31.898 5.266 32.687 6.791 34.255 C 9.464 37.382 12.712 37.903 15.281 36.575 C 14.246 35.133 12.429 33.466 10.264 32.161 C 17.079 35.063 17.743 36.946 20.373 40.655 C 19.197 46.769 19.743 53.066 21.926 58.799 C 17.823 54.667 12.834 55.831 7.441 62.462 C 9.954 61.513 12.095 61.457 13.86 62.283 C 17.079 64.039 19.55 63.96 21.282 62.03 C 19.959 61.156 18.194 60.518 15.973 60.119 C 18.99 60.039 21.635 61.02 23.898 63.053 C 29.499 73.158 40.229 80 52.55 80 C 70.655 80 85.333 65.237 85.333 47.022 C 85.333 30.034 72.565 16.05 56.159 14.242 C 71.088 16.529 82.143 28.376 82.143 43.811 C 82.143 60.25 68.895 73.581 52.555 73.581 C 39.984 73.581 29.245 65.692 24.957 54.573 C 24.468 49.53 26.397 44.576 30.948 39.899 C 32.506 38.298 34.685 37.429 37.104 36.589 C 35.419 37.875 33.527 39.307 31.424 40.89 C 38.233 42.937 38.125 37.096 45.086 36.819 C 37.457 31.813 32.266 32.813 29.734 38.688 C 26.642 41.806 24.618 45.205 23.522 49.614 C 21.027 36.899 27 21.224 41.052 19.252 C 39.015 19.839 37.179 20.792 36.026 21.736 C 37.829 23.375 40.577 23.661 43.42 21.713 C 44.996 20.774 47.006 20.623 49.444 21.271 C 46.408 18.529 40.064 15.5 36.257 18.332 Z" clip-path="url(#clip0_596_13)" style="fill: rgb(223, 73, 124);"/>
  <defs>
    <clipPath id="clip0_596_13">
      <rect width="261" height="80" fill="white"/>
    </clipPath>
    <style bx:fonts="Dancing Script">@import url(https://fonts.googleapis.com/css2?family=Dancing+Script%3Aital%2Cwght%400%2C400%3B0%2C500%3B0%2C600%3B0%2C700&amp;display=swap);</style>
  </defs>
</svg>