<?xml version="1.0" encoding="utf-8"?>
<svg width="261" height="60" viewBox="0 0 261 80" fill="none" class="svg replaced-svg" xmlns="http://www.w3.org/2000/svg">
  <g>
    <path fill-rule="evenodd" clip-rule="evenodd" d="M 51.83 33.668 C 51.835 31.546 52.701 29.62 54.108 28.244 C 55.515 29.62 56.386 31.541 56.386 33.668 C 56.386 35.344 55.845 36.889 54.932 38.143 C 54.183 37.124 54.155 35.063 54.108 33.668 C 53.76 35.175 53.68 36.537 53.812 37.697 C 53.398 36.288 52.635 34.94 51.835 34.062 C 51.83 33.931 51.826 33.799 51.83 33.668 Z M 51.091 34.142 C 49.595 32.644 47.628 31.902 45.67 31.931 C 45.618 35.701 48.334 38.941 52.042 39.514 C 51.854 38.26 50.428 36.781 49.477 35.767 C 50.447 36.373 51.256 37.03 51.906 37.702 C 53.026 38.927 53.576 40.228 53.115 41.364 C 52.837 42.045 51.463 41.89 50.602 42.735 C 49.731 43.59 49.11 45.069 49.129 46.389 C 51.364 46.421 53.369 44.961 54.019 42.796 L 54.005 42.839 C 54.405 41.829 54.023 41.341 55.2 39.951 C 55.586 39.589 56.038 39.237 56.565 38.908 C 55.929 39.589 54.974 40.58 54.847 41.416 C 57.332 41.035 59.153 38.861 59.116 36.34 C 57.803 36.321 56.452 36.852 55.487 37.824 C 53.732 39.589 54.494 41.327 53.369 42.458 C 52.927 42.933 52.362 43.393 51.684 43.82 C 52.113 43.36 52.682 42.768 53.049 42.167 C 54.475 39.847 52.8 35.847 51.091 34.142 Z M 47.646 37.871 C 45.533 37.875 43.623 38.749 42.258 40.162 C 43.623 41.575 45.533 42.454 47.646 42.454 C 49.312 42.454 50.847 41.909 52.094 40.989 C 51.077 40.237 49.03 40.204 47.646 40.162 C 49.171 39.805 50.55 39.73 51.713 39.876 C 50.202 39.603 48.87 38.885 47.83 37.875 C 47.769 37.875 47.708 37.871 47.646 37.871 Z M 70.025 40.791 C 74.825 43.759 76.105 45.773 73.87 46.83 C 71.131 48.558 70.721 50.309 72.641 52.08 C 73.244 52.793 73.201 53.512 72.514 54.235 C 72.086 54.728 72.124 55.146 72.622 55.489 C 73.244 56.409 73.051 57.207 72.039 57.883 C 71.54 58.517 71.422 59.607 71.691 61.142 C 71.949 64.871 70.213 66.505 66.49 66.04 C 54.908 64.481 49.167 64.424 49.134 73.595 C 39.025 64.349 44.493 55.93 50.075 47.91 C 53.139 47.238 55.332 45.501 56.762 43.092 C 48.451 57.456 44.446 60.325 47.797 70.163 C 45.42 57.447 70.072 44.651 53.774 17.238 C 69.469 25.164 65.464 37.039 70.025 40.791 Z" clip-path="url(#clip0_596_13)" style="fill: rgb(223, 73, 124);"/>
    <g>
      <path d="M 100.584 64.246 C 100.584 63.756 100.578 63.33 100.567 62.967 C 100.555 62.599 100.538 62.282 100.515 62.017 C 100.492 61.747 100.463 61.522 100.428 61.344 C 100.4 61.165 100.368 61.016 100.333 60.895 L 100.333 60.86 C 100.449 60.866 100.57 60.869 100.696 60.869 C 100.806 60.875 100.927 60.877 101.059 60.877 C 101.197 60.877 101.338 60.877 101.482 60.877 C 101.689 60.877 101.969 60.857 102.32 60.817 C 102.677 60.777 103.135 60.757 103.693 60.757 C 104.211 60.757 104.689 60.826 105.127 60.964 C 105.564 61.096 105.941 61.289 106.258 61.542 C 106.581 61.796 106.831 62.11 107.009 62.484 C 107.194 62.852 107.286 63.273 107.286 63.745 C 107.286 64.142 107.231 64.499 107.122 64.816 C 107.012 65.127 106.857 65.4 106.655 65.636 C 106.46 65.867 106.221 66.062 105.939 66.223 C 105.662 66.379 105.357 66.503 105.023 66.595 C 105.512 66.67 105.959 66.796 106.362 66.975 C 106.765 67.147 107.11 67.366 107.398 67.631 C 107.692 67.896 107.916 68.207 108.072 68.564 C 108.233 68.915 108.314 69.307 108.314 69.738 C 108.314 70.953 107.913 71.866 107.113 72.476 C 106.313 73.081 105.115 73.383 103.52 73.383 C 103.348 73.383 103.146 73.374 102.916 73.357 C 102.685 73.346 102.449 73.331 102.208 73.314 C 101.972 73.297 101.738 73.279 101.508 73.262 C 101.278 73.251 101.076 73.245 100.903 73.245 L 100.333 73.245 L 100.333 73.21 C 100.368 73.089 100.4 72.94 100.428 72.761 C 100.463 72.583 100.492 72.361 100.515 72.096 C 100.538 71.831 100.555 71.518 100.567 71.155 C 100.578 70.786 100.584 70.357 100.584 69.868 L 100.584 64.246 Z M 103.754 67.122 C 103.362 67.122 103.034 67.136 102.769 67.165 C 102.504 67.194 102.3 67.222 102.156 67.251 L 102.156 69.868 C 102.156 70.542 102.167 71.097 102.19 71.535 C 102.213 71.973 102.245 72.329 102.285 72.606 C 102.504 72.635 102.723 72.66 102.942 72.683 C 103.16 72.707 103.336 72.718 103.469 72.718 C 104.545 72.718 105.331 72.479 105.826 72.001 C 106.327 71.518 106.578 70.778 106.578 69.782 C 106.578 69.39 106.517 69.033 106.396 68.711 C 106.281 68.383 106.106 68.1 105.869 67.864 C 105.639 67.628 105.346 67.447 104.989 67.32 C 104.637 67.188 104.226 67.122 103.754 67.122 Z M 102.156 66.474 C 102.317 66.491 102.461 66.503 102.588 66.508 C 102.714 66.508 102.85 66.508 102.994 66.508 C 103.385 66.508 103.742 66.454 104.064 66.344 C 104.387 66.229 104.66 66.059 104.885 65.835 C 105.115 65.61 105.294 65.331 105.42 64.997 C 105.547 64.657 105.61 64.263 105.61 63.814 C 105.61 63.44 105.564 63.1 105.472 62.795 C 105.38 62.49 105.242 62.23 105.058 62.017 C 104.879 61.799 104.657 61.632 104.393 61.517 C 104.128 61.401 103.825 61.344 103.486 61.344 C 103.267 61.344 103.074 61.352 102.907 61.37 C 102.746 61.387 102.608 61.407 102.493 61.43 C 102.36 61.453 102.248 61.482 102.156 61.517 L 102.156 66.474 Z M 116.706 73.4 C 116.067 73.4 115.468 73.3 114.909 73.098 C 114.351 72.897 113.864 72.603 113.45 72.217 C 113.035 71.826 112.707 71.345 112.465 70.775 C 112.229 70.199 112.111 69.543 112.111 68.806 C 112.111 68.155 112.221 67.553 112.439 67.001 C 112.658 66.442 112.96 65.959 113.346 65.55 C 113.732 65.141 114.181 64.821 114.693 64.591 C 115.212 64.361 115.77 64.246 116.369 64.246 C 116.962 64.246 117.512 64.349 118.019 64.557 C 118.525 64.758 118.963 65.055 119.331 65.446 C 119.705 65.832 119.999 66.313 120.212 66.888 C 120.431 67.458 120.549 68.109 120.566 68.84 C 119.916 68.829 119.265 68.82 118.614 68.814 C 117.964 68.809 117.287 68.806 116.585 68.806 C 116.084 68.806 115.595 68.809 115.117 68.814 C 114.645 68.82 114.218 68.829 113.838 68.84 C 113.873 69.439 113.965 69.98 114.115 70.464 C 114.27 70.948 114.48 71.362 114.745 71.708 C 115.016 72.047 115.341 72.309 115.721 72.493 C 116.107 72.678 116.542 72.77 117.025 72.77 C 117.359 72.77 117.673 72.732 117.967 72.658 C 118.266 72.577 118.537 72.468 118.779 72.329 C 119.02 72.191 119.236 72.03 119.426 71.846 C 119.616 71.656 119.777 71.451 119.91 71.233 L 120.014 71.284 L 119.374 72.822 C 119.063 72.983 118.692 73.121 118.26 73.236 C 117.828 73.346 117.31 73.4 116.706 73.4 Z M 115.557 68.132 C 116.133 68.132 116.709 68.132 117.284 68.132 C 117.866 68.126 118.393 68.115 118.865 68.098 C 118.813 67.597 118.715 67.147 118.571 66.75 C 118.427 66.353 118.243 66.016 118.019 65.74 C 117.794 65.463 117.529 65.25 117.224 65.101 C 116.919 64.951 116.582 64.876 116.214 64.876 C 115.88 64.876 115.572 64.951 115.289 65.101 C 115.013 65.245 114.771 65.455 114.564 65.731 C 114.357 66.008 114.19 66.347 114.063 66.75 C 113.936 67.147 113.862 67.602 113.838 68.115 C 114.098 68.126 114.371 68.132 114.659 68.132 C 114.947 68.132 115.246 68.132 115.557 68.132 Z M 124.208 70.697 C 124.208 70.242 124.301 69.848 124.485 69.514 C 124.675 69.18 124.925 68.895 125.236 68.659 C 125.547 68.423 125.901 68.233 126.298 68.089 C 126.696 67.939 127.107 67.824 127.533 67.743 C 127.96 67.657 128.38 67.6 128.794 67.571 C 129.209 67.536 129.589 67.516 129.934 67.51 L 129.934 67.07 C 129.934 66.69 129.885 66.362 129.787 66.085 C 129.69 65.809 129.551 65.582 129.373 65.403 C 129.195 65.219 128.979 65.083 128.725 64.997 C 128.478 64.905 128.204 64.859 127.905 64.859 C 127.698 64.859 127.493 64.876 127.292 64.911 C 127.09 64.945 126.88 65.003 126.661 65.083 C 126.448 65.164 126.221 65.273 125.979 65.412 C 125.743 65.55 125.487 65.725 125.21 65.938 L 125.124 65.887 L 125.711 64.669 C 125.901 64.582 126.088 64.513 126.273 64.462 C 126.457 64.404 126.644 64.358 126.834 64.323 C 127.024 64.289 127.217 64.266 127.413 64.254 C 127.614 64.237 127.824 64.228 128.043 64.228 C 128.648 64.228 129.163 64.303 129.589 64.453 C 130.021 64.597 130.372 64.798 130.643 65.058 C 130.919 65.311 131.12 65.61 131.247 65.956 C 131.374 66.295 131.437 66.661 131.437 67.052 L 131.437 69.868 C 131.437 70.357 131.443 70.786 131.454 71.155 C 131.472 71.518 131.489 71.831 131.506 72.096 C 131.529 72.361 131.555 72.583 131.584 72.761 C 131.618 72.94 131.653 73.089 131.688 73.21 L 131.688 73.245 L 129.779 73.245 L 129.779 73.21 C 129.808 73.118 129.828 73.015 129.839 72.899 C 129.857 72.784 129.871 72.646 129.883 72.485 C 129.762 72.588 129.618 72.695 129.451 72.804 C 129.289 72.914 129.102 73.015 128.889 73.107 C 128.682 73.193 128.449 73.262 128.19 73.314 C 127.937 73.372 127.657 73.4 127.352 73.4 C 126.35 73.4 125.576 73.167 125.029 72.701 C 124.482 72.229 124.208 71.561 124.208 70.697 Z M 129.934 68.184 C 129.41 68.19 128.907 68.221 128.423 68.279 C 127.939 68.331 127.51 68.443 127.136 68.616 C 126.768 68.788 126.471 69.036 126.247 69.358 C 126.028 69.675 125.918 70.098 125.918 70.628 C 125.918 71.307 126.088 71.826 126.428 72.183 C 126.768 72.54 127.237 72.718 127.836 72.718 C 128.112 72.718 128.363 72.681 128.587 72.606 C 128.817 72.525 129.019 72.427 129.192 72.312 C 129.37 72.191 129.52 72.062 129.641 71.923 C 129.762 71.78 129.854 71.641 129.917 71.509 C 129.929 71.29 129.934 71.048 129.934 70.784 C 129.934 70.513 129.934 70.208 129.934 69.868 L 129.934 68.184 Z M 137.981 70.222 C 137.981 70.982 138.131 71.541 138.43 71.897 C 138.735 72.255 139.144 72.433 139.657 72.433 C 139.841 72.433 140.048 72.396 140.278 72.321 C 140.509 72.24 140.745 72.136 140.987 72.01 C 141.234 71.877 141.479 71.725 141.721 71.552 C 141.968 71.379 142.196 71.195 142.403 70.999 C 142.414 70.832 142.42 70.657 142.42 70.473 C 142.42 70.283 142.42 70.081 142.42 69.868 L 142.42 67.778 C 142.42 67.289 142.412 66.862 142.394 66.5 C 142.383 66.131 142.366 65.815 142.342 65.55 C 142.325 65.285 142.299 65.063 142.265 64.885 C 142.236 64.706 142.204 64.557 142.17 64.436 L 142.17 64.401 L 144.165 64.401 L 144.165 64.436 C 144.13 64.557 144.099 64.706 144.07 64.885 C 144.041 65.063 144.015 65.285 143.992 65.55 C 143.969 65.815 143.952 66.131 143.94 66.5 C 143.929 66.862 143.923 67.289 143.923 67.778 L 143.923 69.868 C 143.923 70.357 143.929 70.786 143.94 71.155 C 143.952 71.518 143.969 71.831 143.992 72.096 C 144.015 72.361 144.041 72.583 144.07 72.761 C 144.099 72.94 144.13 73.089 144.165 73.21 L 144.165 73.245 L 142.17 73.245 L 142.17 73.21 C 142.204 73.066 142.239 72.882 142.273 72.658 C 142.314 72.433 142.342 72.139 142.36 71.777 C 142.124 71.978 141.868 72.177 141.591 72.373 C 141.321 72.568 141.035 72.744 140.736 72.899 C 140.443 73.055 140.143 73.179 139.838 73.271 C 139.539 73.369 139.242 73.417 138.948 73.417 C 138.499 73.417 138.116 73.34 137.8 73.184 C 137.489 73.029 137.233 72.825 137.031 72.571 C 136.835 72.318 136.691 72.03 136.599 71.708 C 136.513 71.385 136.47 71.054 136.47 70.714 L 136.47 67.778 C 136.47 67.289 136.464 66.862 136.452 66.5 C 136.441 66.131 136.424 65.815 136.401 65.55 C 136.378 65.285 136.352 65.063 136.323 64.885 C 136.294 64.706 136.262 64.557 136.228 64.436 L 136.228 64.401 L 138.223 64.401 L 138.223 64.436 C 138.188 64.557 138.157 64.706 138.128 64.885 C 138.099 65.063 138.073 65.285 138.05 65.55 C 138.027 65.815 138.01 66.131 137.998 66.5 C 137.987 66.862 137.981 67.289 137.981 67.778 L 137.981 70.222 Z M 152.186 72.735 C 152.358 72.735 152.528 72.704 152.695 72.64 C 152.868 72.577 153.032 72.491 153.187 72.381 C 153.349 72.272 153.501 72.148 153.645 72.01 C 153.795 71.866 153.933 71.716 154.06 71.561 L 154.146 71.604 L 153.585 72.994 C 153.516 73.029 153.429 73.072 153.326 73.124 C 153.228 73.17 153.107 73.213 152.963 73.254 C 152.825 73.3 152.661 73.337 152.471 73.366 C 152.281 73.4 152.056 73.417 151.797 73.417 C 151.025 73.417 150.424 73.21 149.992 72.796 C 149.566 72.375 149.353 71.722 149.353 70.835 L 149.353 65.075 L 147.902 65.127 L 147.902 64.367 C 148.08 64.378 148.294 64.387 148.541 64.392 C 148.789 64.398 149.059 64.401 149.353 64.401 C 149.347 63.992 149.336 63.632 149.318 63.322 C 149.307 63.005 149.29 62.731 149.267 62.501 C 149.249 62.265 149.226 62.066 149.197 61.905 C 149.169 61.744 149.14 61.609 149.111 61.499 L 149.111 61.465 L 151.106 61.465 L 151.106 61.499 C 151.072 61.609 151.04 61.744 151.011 61.905 C 150.982 62.066 150.956 62.262 150.933 62.492 C 150.916 62.723 150.899 62.996 150.882 63.313 C 150.87 63.624 150.861 63.987 150.856 64.401 C 151.218 64.395 151.572 64.39 151.918 64.384 C 152.269 64.372 152.586 64.361 152.868 64.349 C 153.156 64.332 153.398 64.318 153.593 64.306 C 153.795 64.289 153.927 64.274 153.991 64.263 L 153.835 65.144 C 153.542 65.138 153.234 65.129 152.911 65.118 C 152.635 65.106 152.318 65.098 151.961 65.092 C 151.604 65.086 151.236 65.081 150.856 65.075 L 150.856 71.017 C 150.856 71.374 150.893 71.664 150.968 71.889 C 151.049 72.108 151.149 72.28 151.27 72.407 C 151.397 72.534 151.538 72.62 151.693 72.666 C 151.855 72.712 152.019 72.735 152.186 72.735 Z M 161.096 73.141 L 158.056 66.491 C 157.947 66.238 157.829 65.996 157.702 65.766 C 157.575 65.53 157.454 65.32 157.339 65.135 C 157.23 64.951 157.132 64.798 157.046 64.677 C 156.959 64.551 156.902 64.47 156.873 64.436 L 156.873 64.401 L 159.136 64.401 L 159.136 64.436 C 159.124 64.464 159.115 64.508 159.11 64.565 C 159.104 64.623 159.101 64.675 159.101 64.721 C 159.101 64.899 159.127 65.098 159.179 65.317 C 159.236 65.53 159.34 65.797 159.49 66.12 L 161.873 71.302 L 164.05 66.189 C 164.142 65.976 164.234 65.743 164.326 65.489 C 164.424 65.236 164.473 64.98 164.473 64.721 C 164.473 64.646 164.467 64.585 164.456 64.539 C 164.444 64.487 164.433 64.453 164.421 64.436 L 164.421 64.401 L 165.976 64.401 L 165.976 64.436 C 165.872 64.545 165.74 64.741 165.578 65.023 C 165.423 65.299 165.256 65.648 165.077 66.068 L 160.958 75.879 C 160.866 76.092 160.771 76.325 160.673 76.578 C 160.581 76.832 160.535 77.088 160.535 77.347 C 160.535 77.422 160.54 77.482 160.552 77.528 C 160.563 77.58 160.575 77.615 160.586 77.632 L 160.586 77.667 L 158.971 77.667 L 158.971 77.632 C 159.081 77.523 159.213 77.33 159.369 77.053 C 159.53 76.783 159.7 76.44 159.878 76.026 L 161.096 73.141 Z M 185.912 73.245 L 185.912 73.21 C 185.924 73.182 185.932 73.138 185.938 73.081 C 185.944 73.023 185.947 72.971 185.947 72.925 C 185.947 72.747 185.921 72.551 185.869 72.338 C 185.823 72.119 185.731 71.849 185.593 71.526 L 184.548 69.177 C 184.225 69.166 183.796 69.16 183.261 69.16 C 182.726 69.16 182.147 69.16 181.525 69.16 C 181.07 69.16 180.63 69.16 180.204 69.16 C 179.783 69.16 179.403 69.166 179.064 69.177 L 178.07 71.457 C 177.984 71.67 177.892 71.903 177.794 72.157 C 177.696 72.41 177.647 72.666 177.647 72.925 C 177.647 73 177.653 73.063 177.664 73.115 C 177.676 73.161 177.688 73.193 177.699 73.21 L 177.699 73.245 L 175.937 73.245 L 175.937 73.21 C 176.041 73.101 176.17 72.908 176.326 72.632 C 176.481 72.35 176.651 71.998 176.835 71.578 L 181.784 60.601 L 182.475 60.601 L 187.165 71.155 C 187.274 71.402 187.386 71.644 187.501 71.88 C 187.622 72.111 187.735 72.318 187.838 72.502 C 187.942 72.686 188.034 72.842 188.115 72.969 C 188.195 73.095 188.25 73.176 188.279 73.21 L 188.279 73.245 L 185.912 73.245 Z M 180.316 68.417 C 180.65 68.417 180.992 68.417 181.344 68.417 C 181.695 68.411 182.037 68.408 182.371 68.408 C 182.711 68.403 183.036 68.4 183.347 68.4 C 183.658 68.394 183.94 68.388 184.194 68.383 L 181.767 62.898 L 179.383 68.417 L 180.316 68.417 Z M 197.863 67.424 C 197.863 66.664 197.71 66.105 197.405 65.748 C 197.1 65.391 196.691 65.213 196.179 65.213 C 195.994 65.213 195.787 65.253 195.557 65.334 C 195.326 65.409 195.09 65.512 194.849 65.645 C 194.607 65.771 194.365 65.921 194.123 66.094 C 193.881 66.267 193.654 66.451 193.441 66.647 L 193.424 67.778 L 193.424 69.868 C 193.424 70.357 193.429 70.786 193.441 71.155 C 193.452 71.518 193.47 71.831 193.493 72.096 C 193.516 72.361 193.542 72.583 193.57 72.761 C 193.599 72.94 193.631 73.089 193.665 73.21 L 193.665 73.245 L 191.67 73.245 L 191.67 73.21 C 191.705 73.089 191.737 72.94 191.765 72.761 C 191.8 72.583 191.826 72.361 191.843 72.096 C 191.866 71.831 191.883 71.518 191.895 71.155 C 191.912 70.786 191.921 70.357 191.921 69.868 L 191.921 67.778 C 191.921 67.289 191.912 66.862 191.895 66.5 C 191.883 66.131 191.866 65.815 191.843 65.55 C 191.826 65.285 191.8 65.063 191.765 64.885 C 191.737 64.706 191.705 64.557 191.67 64.436 L 191.67 64.401 L 193.665 64.401 L 193.665 64.436 C 193.619 64.58 193.582 64.764 193.553 64.988 C 193.53 65.207 193.504 65.495 193.475 65.852 C 193.712 65.656 193.965 65.46 194.235 65.265 C 194.512 65.069 194.797 64.896 195.09 64.747 C 195.384 64.591 195.683 64.467 195.989 64.375 C 196.294 64.277 196.593 64.228 196.887 64.228 C 197.336 64.228 197.716 64.306 198.027 64.462 C 198.344 64.617 198.6 64.821 198.795 65.075 C 198.997 65.328 199.141 65.619 199.227 65.947 C 199.319 66.27 199.365 66.598 199.365 66.932 L 199.365 69.868 C 199.365 70.357 199.371 70.786 199.383 71.155 C 199.394 71.518 199.412 71.831 199.435 72.096 C 199.458 72.361 199.483 72.583 199.512 72.761 C 199.541 72.94 199.573 73.089 199.607 73.21 L 199.607 73.245 L 197.612 73.245 L 197.612 73.21 C 197.647 73.089 197.678 72.94 197.707 72.761 C 197.742 72.583 197.768 72.361 197.785 72.096 C 197.808 71.831 197.825 71.518 197.837 71.155 C 197.854 70.786 197.863 70.357 197.863 69.868 L 197.863 67.424 Z M 208.388 64.246 C 208.624 64.246 208.86 64.266 209.096 64.306 C 209.332 64.346 209.563 64.404 209.787 64.479 C 210.012 64.554 210.225 64.646 210.426 64.755 C 210.628 64.865 210.809 64.988 210.97 65.127 L 210.97 63.71 C 210.97 63.221 210.965 62.795 210.953 62.432 C 210.942 62.063 210.924 61.747 210.902 61.482 C 210.879 61.217 210.852 60.995 210.823 60.817 C 210.795 60.638 210.764 60.489 210.729 60.368 L 210.729 60.333 L 212.724 60.333 L 212.724 60.368 C 212.689 60.489 212.655 60.638 212.62 60.817 C 212.591 60.995 212.566 61.217 212.542 61.482 C 212.525 61.747 212.508 62.063 212.49 62.432 C 212.479 62.795 212.473 63.221 212.473 63.71 L 212.473 69.868 C 212.473 70.357 212.479 70.786 212.49 71.155 C 212.508 71.518 212.525 71.831 212.542 72.096 C 212.566 72.361 212.591 72.583 212.62 72.761 C 212.655 72.94 212.689 73.089 212.724 73.21 L 212.724 73.245 L 210.814 73.245 L 210.814 73.21 C 210.832 73.164 210.847 73.098 210.859 73.012 C 210.87 72.92 210.884 72.807 210.902 72.675 C 210.608 72.859 210.239 73.026 209.796 73.176 C 209.352 73.325 208.837 73.4 208.25 73.4 C 207.565 73.4 206.943 73.294 206.384 73.081 C 205.826 72.868 205.348 72.563 204.951 72.165 C 204.559 71.768 204.257 71.287 204.044 70.723 C 203.831 70.153 203.724 69.514 203.724 68.806 C 203.724 68.155 203.84 67.553 204.07 67.001 C 204.3 66.442 204.623 65.959 205.037 65.55 C 205.452 65.141 205.944 64.821 206.514 64.591 C 207.084 64.361 207.709 64.246 208.388 64.246 Z M 210.97 66.647 C 210.74 66.042 210.409 65.596 209.977 65.308 C 209.551 65.02 209.07 64.876 208.535 64.876 C 208.086 64.876 207.671 64.957 207.291 65.118 C 206.911 65.273 206.586 65.501 206.315 65.8 C 206.045 66.1 205.832 66.468 205.676 66.906 C 205.527 67.338 205.452 67.83 205.452 68.383 C 205.452 69.004 205.521 69.583 205.659 70.118 C 205.797 70.654 205.999 71.12 206.264 71.518 C 206.534 71.909 206.868 72.217 207.265 72.442 C 207.663 72.66 208.12 72.77 208.639 72.77 C 208.909 72.77 209.162 72.738 209.399 72.675 C 209.635 72.612 209.851 72.531 210.046 72.433 C 210.242 72.335 210.415 72.229 210.565 72.113 C 210.714 71.993 210.838 71.874 210.936 71.759 C 210.947 71.512 210.956 71.23 210.962 70.913 C 210.967 70.596 210.97 70.248 210.97 69.868 L 210.97 66.647 Z M 230.466 62.829 L 230.276 62.829 C 230.231 62.697 230.156 62.547 230.052 62.38 C 229.954 62.213 229.822 62.058 229.655 61.914 C 229.494 61.764 229.295 61.64 229.059 61.542 C 228.829 61.445 228.555 61.396 228.239 61.396 C 227.956 61.396 227.706 61.439 227.487 61.525 C 227.268 61.612 227.084 61.732 226.934 61.888 C 226.791 62.043 226.681 62.228 226.606 62.441 C 226.531 62.654 226.494 62.89 226.494 63.149 C 226.494 63.563 226.609 63.961 226.839 64.341 C 227.076 64.715 227.369 65.086 227.72 65.455 C 228.072 65.823 228.451 66.192 228.86 66.56 C 229.269 66.929 229.649 67.312 230 67.709 C 230.351 68.106 230.642 68.524 230.872 68.961 C 231.109 69.393 231.227 69.859 231.227 70.36 C 231.227 70.735 231.161 71.112 231.028 71.492 C 230.902 71.866 230.703 72.203 230.432 72.502 C 230.161 72.802 229.813 73.046 229.387 73.236 C 228.961 73.421 228.454 73.513 227.867 73.513 C 227.539 73.513 227.225 73.481 226.926 73.417 C 226.633 73.36 226.358 73.288 226.105 73.202 C 225.858 73.11 225.633 73.012 225.432 72.908 C 225.236 72.804 225.075 72.709 224.948 72.623 L 225.147 70.714 L 225.362 70.714 C 225.425 70.985 225.529 71.244 225.673 71.492 C 225.818 71.733 225.992 71.949 226.2 72.139 C 226.414 72.324 226.655 72.473 226.926 72.588 C 227.196 72.698 227.493 72.753 227.815 72.753 C 228.108 72.753 228.37 72.709 228.601 72.623 C 228.837 72.531 229.039 72.407 229.206 72.252 C 229.373 72.09 229.499 71.901 229.585 71.682 C 229.678 71.463 229.723 71.224 229.723 70.965 C 229.723 70.602 229.658 70.268 229.526 69.963 C 229.393 69.652 229.217 69.358 228.998 69.082 C 228.785 68.806 228.541 68.538 228.264 68.279 C 227.993 68.02 227.715 67.761 227.426 67.502 C 227.139 67.237 226.857 66.966 226.581 66.69 C 226.31 66.413 226.065 66.12 225.847 65.809 C 225.633 65.492 225.461 65.155 225.328 64.798 C 225.195 64.436 225.129 64.038 225.129 63.607 C 225.129 63.152 225.215 62.743 225.389 62.38 C 225.567 62.012 225.8 61.698 226.088 61.439 C 226.382 61.18 226.712 60.981 227.081 60.843 C 227.45 60.705 227.83 60.636 228.221 60.636 C 228.509 60.636 228.774 60.659 229.016 60.705 C 229.258 60.751 229.474 60.805 229.664 60.869 C 229.859 60.932 230.029 60.995 230.173 61.059 C 230.317 61.122 230.435 61.174 230.527 61.214 L 230.466 62.829 Z M 235.923 67.605 C 235.923 67.116 235.914 66.69 235.896 66.327 C 235.885 65.959 235.868 65.642 235.844 65.377 C 235.828 65.112 235.801 64.891 235.767 64.712 C 235.738 64.534 235.706 64.384 235.672 64.263 L 235.672 64.228 L 237.667 64.228 L 237.667 64.263 C 237.639 64.349 237.612 64.447 237.589 64.557 C 237.567 64.666 237.546 64.79 237.529 64.928 C 237.868 64.732 238.243 64.568 238.651 64.436 C 239.066 64.297 239.523 64.228 240.025 64.228 C 240.664 64.228 241.246 64.338 241.77 64.557 C 242.299 64.77 242.751 65.078 243.125 65.481 C 243.505 65.884 243.799 66.37 244.006 66.94 C 244.214 67.51 244.317 68.149 244.317 68.857 C 244.317 69.451 244.214 70.021 244.006 70.568 C 243.805 71.114 243.505 71.598 243.108 72.018 C 242.716 72.439 242.233 72.776 241.657 73.029 C 241.081 73.277 240.419 73.4 239.67 73.4 C 239.222 73.4 238.813 73.366 238.444 73.297 C 238.076 73.228 237.736 73.138 237.425 73.029 L 237.425 74.29 C 237.425 74.779 237.431 75.205 237.443 75.568 C 237.454 75.937 237.472 76.253 237.494 76.518 C 237.517 76.783 237.543 77.004 237.572 77.183 C 237.601 77.362 237.632 77.511 237.667 77.632 L 237.667 77.667 L 235.672 77.667 L 235.672 77.632 C 235.706 77.511 235.738 77.362 235.767 77.183 C 235.801 77.004 235.828 76.783 235.844 76.518 C 235.868 76.253 235.885 75.937 235.896 75.568 C 235.914 75.205 235.923 74.779 235.923 74.29 L 235.923 67.605 Z M 239.722 64.876 C 239.527 64.876 239.326 64.902 239.118 64.954 C 238.916 65 238.715 65.069 238.513 65.161 C 238.317 65.248 238.127 65.36 237.944 65.498 C 237.765 65.63 237.603 65.783 237.459 65.956 C 237.448 66.175 237.44 66.422 237.434 66.698 C 237.429 66.975 237.425 67.277 237.425 67.605 L 237.425 72.131 C 237.54 72.217 237.67 72.298 237.814 72.373 C 237.958 72.447 238.119 72.516 238.297 72.58 C 238.482 72.637 238.687 72.683 238.911 72.718 C 239.141 72.753 239.394 72.77 239.67 72.77 C 240.119 72.77 240.526 72.689 240.889 72.528 C 241.251 72.367 241.556 72.134 241.804 71.828 C 242.057 71.523 242.251 71.152 242.382 70.714 C 242.52 70.277 242.59 69.782 242.59 69.229 C 242.59 68.607 242.538 68.031 242.434 67.502 C 242.33 66.966 242.163 66.506 241.933 66.12 C 241.709 65.728 241.415 65.423 241.052 65.204 C 240.69 64.986 240.246 64.876 239.722 64.876 Z M 248.037 70.697 C 248.037 70.242 248.129 69.848 248.313 69.514 C 248.503 69.18 248.754 68.895 249.065 68.659 C 249.375 68.423 249.73 68.233 250.127 68.089 C 250.524 67.939 250.936 67.824 251.362 67.743 C 251.789 67.657 252.209 67.6 252.623 67.571 C 253.038 67.536 253.418 67.516 253.763 67.51 L 253.763 67.07 C 253.763 66.69 253.714 66.362 253.616 66.085 C 253.519 65.809 253.38 65.582 253.201 65.403 C 253.023 65.219 252.807 65.083 252.553 64.997 C 252.306 64.905 252.033 64.859 251.733 64.859 C 251.527 64.859 251.322 64.876 251.12 64.911 C 250.919 64.945 250.708 65.003 250.49 65.083 C 250.276 65.164 250.05 65.273 249.808 65.412 C 249.571 65.55 249.316 65.725 249.039 65.938 L 248.952 65.887 L 249.54 64.669 C 249.73 64.582 249.917 64.513 250.102 64.462 C 250.285 64.404 250.472 64.358 250.662 64.323 C 250.852 64.289 251.046 64.266 251.241 64.254 C 251.442 64.237 251.653 64.228 251.871 64.228 C 252.476 64.228 252.991 64.303 253.418 64.453 C 253.849 64.597 254.201 64.798 254.471 65.058 C 254.748 65.311 254.949 65.61 255.076 65.956 C 255.202 66.295 255.265 66.661 255.265 67.052 L 255.265 69.868 C 255.265 70.357 255.272 70.786 255.283 71.155 C 255.301 71.518 255.317 71.831 255.335 72.096 C 255.358 72.361 255.383 72.583 255.412 72.761 C 255.446 72.94 255.482 73.089 255.516 73.21 L 255.516 73.245 L 253.607 73.245 L 253.607 73.21 C 253.636 73.118 253.657 73.015 253.668 72.899 C 253.685 72.784 253.7 72.646 253.711 72.485 C 253.59 72.588 253.447 72.695 253.28 72.804 C 253.118 72.914 252.93 73.015 252.718 73.107 C 252.51 73.193 252.277 73.262 252.018 73.314 C 251.765 73.372 251.486 73.4 251.18 73.4 C 250.179 73.4 249.404 73.167 248.858 72.701 C 248.311 72.229 248.037 71.561 248.037 70.697 Z M 253.763 68.184 C 253.239 68.19 252.735 68.221 252.252 68.279 C 251.768 68.331 251.339 68.443 250.965 68.616 C 250.596 68.788 250.299 69.036 250.075 69.358 C 249.856 69.675 249.747 70.098 249.747 70.628 C 249.747 71.307 249.917 71.826 250.256 72.183 C 250.596 72.54 251.066 72.718 251.665 72.718 C 251.941 72.718 252.191 72.681 252.415 72.606 C 252.646 72.525 252.848 72.427 253.02 72.312 C 253.199 72.191 253.348 72.062 253.469 71.923 C 253.59 71.78 253.682 71.641 253.745 71.509 C 253.757 71.29 253.763 71.048 253.763 70.784 C 253.763 70.513 253.763 70.208 253.763 69.868 L 253.763 68.184 Z" fill="#333F48" clip-path="url(#clip0_596_13)"/>
      <text style="fill: rgb(51, 63, 72); font-family: Arial, sans-serif; font-size: 208.57px; white-space: pre;" transform="matrix(0.19178, 0, 0, 0.191782, 96.717293, 46.05761)">Pasagge</text>
      <path fill-rule="evenodd" clip-rule="evenodd" d="M 36.257 18.332 C 37.118 17.571 38.012 16.815 38.954 16.064 C 42.954 11.88 43.533 6.522 40.695 0 C 40.158 2.625 39.001 5.076 37.207 7.353 C 35.127 9.025 34.431 11.725 35.127 15.444 C 37.024 14.12 38.737 11.49 40.271 7.551 C 38.13 15.998 34.483 16.294 29.522 21.854 C 29.776 17.975 27.856 14.458 22.369 12.631 C 23.767 14.049 24.454 15.482 24.435 16.928 C 24.232 19.642 25.503 21.408 27.32 21.995 C 27.503 20.835 27.433 19.205 27.028 17.581 C 28.148 20.36 28.374 21.887 28.27 23.328 C 28.167 23.586 23.136 28.93 20.679 39.232 C 17.258 31.367 10.415 26.61 0 31.884 C 3.003 31.898 5.266 32.687 6.791 34.255 C 9.464 37.382 12.712 37.903 15.281 36.575 C 14.246 35.133 12.429 33.466 10.264 32.161 C 17.079 35.063 17.743 36.946 20.373 40.655 C 19.197 46.769 19.743 53.066 21.926 58.799 C 17.823 54.667 12.834 55.831 7.441 62.462 C 9.954 61.513 12.095 61.457 13.86 62.283 C 17.079 64.039 19.55 63.96 21.282 62.03 C 19.959 61.156 18.194 60.518 15.973 60.119 C 18.99 60.039 21.635 61.02 23.898 63.053 C 29.499 73.158 40.229 80 52.55 80 C 70.655 80 85.333 65.237 85.333 47.022 C 85.333 30.034 72.565 16.05 56.159 14.242 C 71.088 16.529 82.143 28.376 82.143 43.811 C 82.143 60.25 68.895 73.581 52.555 73.581 C 39.984 73.581 29.245 65.692 24.957 54.573 C 24.468 49.53 26.397 44.576 30.948 39.899 C 32.506 38.298 34.685 37.429 37.104 36.589 C 35.419 37.875 33.527 39.307 31.424 40.89 C 38.233 42.937 38.125 37.096 45.086 36.819 C 37.457 31.813 32.266 32.813 29.734 38.688 C 26.642 41.806 24.618 45.205 23.522 49.614 C 21.027 36.899 27 21.224 41.052 19.252 C 39.015 19.839 37.179 20.792 36.026 21.736 C 37.829 23.375 40.577 23.661 43.42 21.713 C 44.996 20.774 47.006 20.623 49.444 21.271 C 46.408 18.529 40.064 15.5 36.257 18.332 Z" clip-path="url(#clip0_596_13)" style="fill: rgb(223, 73, 124);"/>
    </g>
  </g>
  <defs>
    <clipPath id="clip0_596_13">
      <rect width="261" height="80" fill="white"/>
    </clipPath>
  </defs>
</svg>