<?xml version="1.0" encoding="utf-8"?>
<svg viewBox="0 0 261 80" fill="none" xmlns="http://www.w3.org/2000/svg">
  <defs>
    <clipPath id="clip0_596_13">
      <rect width="261" height="80" fill="white"/>
    </clipPath>
  </defs>
  <g>
    <g transform="matrix(1, 0, 0, 1, -0.147522, -0.147523)">
      <path fill-rule="evenodd" clip-rule="evenodd" d="M 51.83 33.668 C 51.835 31.546 52.701 29.62 54.108 28.244 C 55.515 29.62 56.386 31.541 56.386 33.668 C 56.386 35.344 55.845 36.889 54.932 38.143 C 54.183 37.124 54.155 35.063 54.108 33.668 C 53.76 35.175 53.68 36.537 53.812 37.697 C 53.398 36.288 52.635 34.94 51.835 34.062 C 51.83 33.931 51.826 33.799 51.83 33.668 Z M 51.091 34.142 C 49.595 32.644 47.628 31.902 45.67 31.931 C 45.618 35.701 48.334 38.941 52.042 39.514 C 51.854 38.26 50.428 36.781 49.477 35.767 C 50.447 36.373 51.256 37.03 51.906 37.702 C 53.026 38.927 53.576 40.228 53.115 41.364 C 52.837 42.045 51.463 41.89 50.602 42.735 C 49.731 43.59 49.11 45.069 49.129 46.389 C 51.364 46.421 53.369 44.961 54.019 42.796 L 54.005 42.839 C 54.405 41.829 54.023 41.341 55.2 39.951 C 55.586 39.589 56.038 39.237 56.565 38.908 C 55.929 39.589 54.974 40.58 54.847 41.416 C 57.332 41.035 59.153 38.861 59.116 36.34 C 57.803 36.321 56.452 36.852 55.487 37.824 C 53.732 39.589 54.494 41.327 53.369 42.458 C 52.927 42.933 52.362 43.393 51.684 43.82 C 52.113 43.36 52.682 42.768 53.049 42.167 C 54.475 39.847 52.8 35.847 51.091 34.142 Z M 47.646 37.871 C 45.533 37.875 43.623 38.749 42.258 40.162 C 43.623 41.575 45.533 42.454 47.646 42.454 C 49.312 42.454 50.847 41.909 52.094 40.989 C 51.077 40.237 49.03 40.204 47.646 40.162 C 49.171 39.805 50.55 39.73 51.713 39.876 C 50.202 39.603 48.87 38.885 47.83 37.875 C 47.769 37.875 47.708 37.871 47.646 37.871 Z M 70.025 40.791 C 74.825 43.759 76.105 45.773 73.87 46.83 C 71.131 48.558 70.721 50.309 72.641 52.08 C 73.244 52.793 73.201 53.512 72.514 54.235 C 72.086 54.728 72.124 55.146 72.622 55.489 C 73.244 56.409 73.051 57.207 72.039 57.883 C 71.54 58.517 71.422 59.607 71.691 61.142 C 71.949 64.871 70.213 66.505 66.49 66.04 C 54.908 64.481 49.167 64.424 49.134 73.595 C 39.025 64.349 44.493 55.93 50.075 47.91 C 53.139 47.238 55.332 45.501 56.762 43.092 C 48.451 57.456 44.446 60.325 47.797 70.163 C 45.42 57.447 70.072 44.651 53.774 17.238 C 69.469 25.164 65.464 37.039 70.025 40.791 Z" clip-path="url(#clip0_596_13)" style="fill: rgb(223, 73, 124);"/>
      <path d="M 21.535 -52.998 Q 29.565 -52.998 34.2 -49.713 Q 38.836 -46.428 38.836 -39.639 Q 38.836 -35.259 36.828 -32.12 Q 34.821 -28.981 31.28 -27.265 Q 27.74 -25.55 22.922 -25.331 L 21.754 -29.492 Q 27.375 -29.346 31.791 -27.557 Q 36.208 -25.769 38.799 -22.593 Q 41.391 -19.418 41.391 -15.038 Q 41.391 -11.023 39.894 -8.139 Q 38.398 -5.256 35.879 -3.467 Q 33.361 -1.679 30.185 -0.839 Q 27.01 0 23.579 0 L 7.446 0 L 7.446 -52.998 Z M 22.922 -30.076 Q 27.01 -30.076 28.908 -32.412 Q 30.806 -34.748 30.806 -37.96 Q 30.806 -41.902 28.36 -43.69 Q 25.915 -45.479 21.9 -45.479 L 15.257 -45.479 L 15.257 -30.076 Z M 23.214 -7.227 Q 26.061 -7.227 28.36 -8.066 Q 30.66 -8.906 32.01 -10.621 Q 33.361 -12.337 33.361 -14.965 Q 33.361 -17.885 31.791 -19.527 Q 30.222 -21.17 27.776 -21.863 Q 25.331 -22.557 22.703 -22.557 L 15.257 -22.557 L 15.257 -7.227 Z" transform="matrix(0.19178, 0, 0, 0.191782, 98.635094, 73.054558)" style="fill: rgb(51, 63, 72); white-space: pre;"/>
      <path d="M 65.648 0.73 Q 60.319 0.73 56.523 -1.35 Q 52.727 -3.431 50.683 -7.117 Q 48.639 -10.804 48.639 -15.549 Q 48.639 -20.075 50.938 -23.761 Q 53.238 -27.448 57.143 -29.638 Q 61.049 -31.828 65.794 -31.828 Q 71.926 -31.828 75.977 -28.251 Q 80.029 -24.674 81.416 -18.25 L 56.523 -9.636 L 54.771 -14.016 L 74.7 -21.17 L 73.167 -20.221 Q 72.291 -22.484 70.393 -24.199 Q 68.495 -25.915 65.21 -25.915 Q 62.582 -25.915 60.501 -24.637 Q 58.421 -23.36 57.216 -21.133 Q 56.012 -18.907 56.012 -15.914 Q 56.012 -12.848 57.289 -10.548 Q 58.567 -8.249 60.793 -6.935 Q 63.02 -5.621 65.794 -5.621 Q 67.765 -5.621 69.553 -6.351 Q 71.342 -7.081 72.948 -8.176 L 76.379 -2.628 Q 73.97 -1.095 71.159 -0.182 Q 68.349 0.73 65.648 0.73 Z" transform="matrix(0.19178, 0, 0, 0.191782, 98.635094, 73.054558)" style="fill: rgb(51, 63, 72); white-space: pre;"/>
      <path d="M 102.46 0.73 Q 98.153 0.73 94.649 -1.058 Q 91.145 -2.847 89.101 -6.424 Q 87.057 -10.001 87.057 -15.257 Q 87.057 -20.44 89.211 -24.163 Q 91.364 -27.886 94.905 -29.893 Q 98.445 -31.901 102.606 -31.901 Q 106.986 -31.901 109.796 -30.039 Q 112.607 -28.178 114.213 -25.696 L 113.702 -24.528 L 114.432 -30.587 L 121.367 -30.587 L 121.367 0 L 113.848 0 L 113.848 -7.665 L 114.651 -5.84 Q 114.359 -5.256 113.41 -4.197 Q 112.461 -3.139 110.891 -1.971 Q 109.322 -0.803 107.241 -0.036 Q 105.161 0.73 102.46 0.73 Z M 104.504 -5.402 Q 106.913 -5.402 108.811 -6.278 Q 110.709 -7.154 112.023 -8.76 Q 113.337 -10.366 113.848 -12.556 L 113.848 -18.907 Q 113.264 -20.951 111.877 -22.447 Q 110.49 -23.944 108.555 -24.82 Q 106.621 -25.696 104.285 -25.696 Q 101.657 -25.696 99.467 -24.418 Q 97.277 -23.141 95.963 -20.878 Q 94.649 -18.615 94.649 -15.622 Q 94.649 -12.775 96 -10.439 Q 97.35 -8.103 99.613 -6.752 Q 101.876 -5.402 104.504 -5.402 Z" transform="matrix(0.19178, 0, 0, 0.191782, 98.635094, 73.054558)" style="fill: rgb(51, 63, 72); white-space: pre;"/>
      <path d="M 142.711 1.241 Q 138.477 1.241 135.776 -1.314 Q 133.075 -3.869 132.929 -7.884 L 132.929 -30.587 L 140.448 -30.587 L 140.448 -10.585 Q 140.594 -8.249 141.798 -6.752 Q 143.003 -5.256 145.704 -5.183 Q 148.186 -5.183 150.12 -6.679 Q 152.055 -8.176 153.186 -10.767 Q 154.318 -13.359 154.318 -16.717 L 154.318 -30.587 L 161.837 -30.587 L 161.837 0 L 155.048 0 L 154.464 -7.081 L 154.756 -5.913 Q 153.807 -3.869 152.055 -2.226 Q 150.303 -0.584 147.894 0.328 Q 145.485 1.241 142.711 1.241 Z" transform="matrix(0.19178, 0, 0, 0.191782, 98.635094, 73.054558)" style="fill: rgb(51, 63, 72); white-space: pre;"/>
      <path d="M 176.272 -44.019 L 183.791 -44.019 L 183.791 -30.514 L 191.967 -30.514 L 191.967 -24.601 L 183.791 -24.601 L 183.791 0 L 176.272 0 L 176.272 -24.601 L 170.87 -24.601 L 170.87 -30.514 L 176.272 -30.514 Z" transform="matrix(0.19178, 0, 0, 0.191782, 98.635094, 73.054558)" style="fill: rgb(51, 63, 72); white-space: pre;"/>
      <path d="M 202.606 14.673 L 222.827 -30.587 L 229.689 -30.587 L 209.979 14.673 Z M 210.344 0.219 L 195.525 -30.587 L 203.993 -30.587 L 216.111 -3.577 Z" transform="matrix(0.19178, 0, 0, 0.191782, 98.635094, 73.054558)" style="fill: rgb(51, 63, 72); white-space: pre;"/>
      <path d="M 259.84 -30.587 L 267.359 -30.587 L 267.359 0 L 259.84 0 Z M 259.402 -41.537 Q 259.402 -43.289 260.789 -44.457 Q 262.176 -45.625 263.782 -45.625 Q 265.461 -45.625 266.775 -44.457 Q 268.089 -43.289 268.089 -41.537 Q 268.089 -39.785 266.775 -38.653 Q 265.461 -37.522 263.782 -37.522 Q 262.176 -37.522 260.789 -38.653 Q 259.402 -39.785 259.402 -41.537 Z" transform="matrix(0.19178, 0, 0, 0.191782, 98.635094, 73.054558)" style="fill: rgb(51, 63, 72); white-space: pre;"/>
      <path d="M 331.291 -42.851 Q 328.517 -44.311 325.305 -45.333 Q 322.093 -46.355 319.1 -46.355 Q 315.012 -46.355 312.603 -44.493 Q 310.194 -42.632 310.194 -39.42 Q 310.194 -37.157 311.8 -35.478 Q 313.406 -33.799 315.961 -32.558 Q 318.516 -31.317 321.363 -30.222 Q 323.772 -29.346 326.145 -28.141 Q 328.517 -26.937 330.452 -25.185 Q 332.386 -23.433 333.518 -20.841 Q 334.649 -18.25 334.649 -14.527 Q 334.649 -10.293 332.569 -6.862 Q 330.488 -3.431 326.583 -1.423 Q 322.677 0.584 317.129 0.584 Q 313.771 0.584 310.596 -0.182 Q 307.421 -0.949 304.61 -2.226 Q 301.8 -3.504 299.537 -5.037 L 303.041 -11.096 Q 304.793 -9.855 307.056 -8.723 Q 309.318 -7.592 311.764 -6.935 Q 314.209 -6.278 316.399 -6.278 Q 318.808 -6.278 321.144 -7.117 Q 323.48 -7.957 325.013 -9.745 Q 326.546 -11.534 326.546 -14.454 Q 326.546 -16.936 325.196 -18.651 Q 323.845 -20.367 321.619 -21.608 Q 319.392 -22.849 316.837 -23.798 Q 314.355 -24.747 311.8 -25.915 Q 309.245 -27.083 307.056 -28.725 Q 304.866 -30.368 303.515 -32.813 Q 302.165 -35.259 302.165 -38.836 Q 302.165 -43.07 304.172 -46.245 Q 306.18 -49.421 309.756 -51.246 Q 313.333 -53.071 318.005 -53.29 Q 323.334 -53.29 327.276 -51.976 Q 331.218 -50.662 334.284 -48.837 Z" transform="matrix(0.19178, 0, 0, 0.191782, 98.635094, 73.054558)" style="fill: rgb(51, 63, 72); white-space: pre;"/>
      <path d="M 362.833 0.73 Q 359.475 0.73 356.409 -0.766 Q 353.343 -2.263 351.518 -4.818 L 351.956 -7.081 L 351.956 14.673 L 344.51 14.673 L 344.51 -31.098 L 351.007 -31.098 L 352.029 -23.652 L 351.226 -25.769 Q 353.489 -28.397 356.811 -30.149 Q 360.132 -31.901 364.22 -31.901 Q 368.527 -31.901 371.958 -29.857 Q 375.389 -27.813 377.36 -24.09 Q 379.331 -20.367 379.331 -15.33 Q 379.331 -10.366 377.178 -6.752 Q 375.024 -3.139 371.301 -1.204 Q 367.578 0.73 362.833 0.73 Z M 361.373 -5.183 Q 364.147 -5.183 366.52 -6.497 Q 368.892 -7.811 370.316 -10.11 Q 371.739 -12.41 371.739 -15.257 Q 371.739 -18.25 370.389 -20.549 Q 369.038 -22.849 366.812 -24.163 Q 364.585 -25.477 361.884 -25.477 Q 359.329 -25.477 357.358 -24.564 Q 355.387 -23.652 354 -22.046 Q 352.613 -20.44 352.029 -18.177 L 352.029 -12.556 Q 352.467 -10.439 353.781 -8.76 Q 355.095 -7.081 357.066 -6.132 Q 359.037 -5.183 361.373 -5.183 Z" transform="matrix(0.19178, 0, 0, 0.191782, 98.635094, 73.054558)" style="fill: rgb(51, 63, 72); white-space: pre;"/>
      <path d="M 400.968 0.73 Q 396.661 0.73 393.157 -1.058 Q 389.653 -2.847 387.609 -6.424 Q 385.565 -10.001 385.565 -15.257 Q 385.565 -20.44 387.718 -24.163 Q 389.872 -27.886 393.412 -29.893 Q 396.953 -31.901 401.114 -31.901 Q 405.494 -31.901 408.304 -30.039 Q 411.115 -28.178 412.721 -25.696 L 412.21 -24.528 L 412.94 -30.587 L 419.875 -30.587 L 419.875 0 L 412.356 0 L 412.356 -7.665 L 413.159 -5.84 Q 412.867 -5.256 411.918 -4.197 Q 410.969 -3.139 409.399 -1.971 Q 407.83 -0.803 405.749 -0.036 Q 403.669 0.73 400.968 0.73 Z M 403.012 -5.402 Q 405.421 -5.402 407.319 -6.278 Q 409.217 -7.154 410.531 -8.76 Q 411.845 -10.366 412.356 -12.556 L 412.356 -18.907 Q 411.772 -20.951 410.385 -22.447 Q 408.998 -23.944 407.063 -24.82 Q 405.129 -25.696 402.793 -25.696 Q 400.165 -25.696 397.975 -24.418 Q 395.785 -23.141 394.471 -20.878 Q 393.157 -18.615 393.157 -15.622 Q 393.157 -12.775 394.507 -10.439 Q 395.858 -8.103 398.121 -6.752 Q 400.384 -5.402 403.012 -5.402 Z" transform="matrix(0.19178, 0, 0, 0.191782, 98.635094, 73.054558)" style="fill: rgb(51, 63, 72); white-space: pre;"/>
      <path d="M 495.296 -4.015 Q 494.128 -3.212 491.829 -2.08 Q 489.529 -0.949 486.427 -0.146 Q 483.325 0.657 479.602 0.584 Q 473.397 0.511 468.469 -1.606 Q 463.542 -3.723 460.111 -7.409 Q 456.68 -11.096 454.818 -15.877 Q 452.957 -20.659 452.957 -26.061 Q 452.957 -32.047 454.855 -37.047 Q 456.753 -42.048 460.293 -45.771 Q 463.834 -49.494 468.615 -51.538 Q 473.397 -53.582 479.091 -53.582 Q 483.982 -53.582 487.924 -52.268 Q 491.865 -50.954 494.566 -49.202 L 491.5 -41.902 Q 489.383 -43.362 486.281 -44.712 Q 483.179 -46.063 479.383 -46.063 Q 475.66 -46.063 472.338 -44.566 Q 469.017 -43.07 466.498 -40.405 Q 463.98 -37.741 462.52 -34.2 Q 461.06 -30.66 461.06 -26.499 Q 461.06 -22.265 462.374 -18.688 Q 463.688 -15.111 466.133 -12.483 Q 468.579 -9.855 472.01 -8.395 Q 475.441 -6.935 479.748 -6.935 Q 483.836 -6.935 486.938 -8.176 Q 490.04 -9.417 492.011 -11.023 Z" transform="matrix(0.19178, 0, 0, 0.191782, 98.635094, 73.054558)" style="fill: rgb(51, 63, 72); white-space: pre;"/>
      <path d="M 519.645 0.73 Q 514.316 0.73 510.521 -1.35 Q 506.725 -3.431 504.681 -7.117 Q 502.637 -10.804 502.637 -15.549 Q 502.637 -20.075 504.936 -23.761 Q 507.236 -27.448 511.141 -29.638 Q 515.046 -31.828 519.791 -31.828 Q 525.923 -31.828 529.975 -28.251 Q 534.026 -24.674 535.413 -18.25 L 510.521 -9.636 L 508.769 -14.016 L 528.697 -21.17 L 527.164 -20.221 Q 526.288 -22.484 524.39 -24.199 Q 522.492 -25.915 519.207 -25.915 Q 516.579 -25.915 514.499 -24.637 Q 512.419 -23.36 511.214 -21.133 Q 510.01 -18.907 510.01 -15.914 Q 510.01 -12.848 511.287 -10.548 Q 512.564 -8.249 514.791 -6.935 Q 517.017 -5.621 519.791 -5.621 Q 521.762 -5.621 523.551 -6.351 Q 525.339 -7.081 526.945 -8.176 L 530.376 -2.628 Q 527.967 -1.095 525.157 -0.182 Q 522.346 0.73 519.645 0.73 Z" transform="matrix(0.19178, 0, 0, 0.191782, 98.635094, 73.054558)" style="fill: rgb(51, 63, 72); white-space: pre;"/>
      <path d="M 550.461 -30.587 L 551.118 -23.579 L 550.826 -24.528 Q 552.359 -27.813 555.571 -29.82 Q 558.783 -31.828 563.163 -31.828 Q 567.47 -31.828 570.281 -29.273 Q 573.091 -26.718 573.164 -22.63 L 573.164 0 L 565.645 0 L 565.645 -20.002 Q 565.572 -22.338 564.258 -23.834 Q 562.944 -25.331 560.17 -25.404 Q 557.688 -25.404 555.644 -23.907 Q 553.6 -22.411 552.432 -19.856 Q 551.264 -17.301 551.264 -13.943 L 551.264 0 L 543.745 0 L 543.745 -30.587 Z" transform="matrix(0.19178, 0, 0, 0.191782, 98.635094, 73.054558)" style="fill: rgb(51, 63, 72); white-space: pre;"/>
      <path d="M 587.59 -44.019 L 595.109 -44.019 L 595.109 -30.514 L 603.285 -30.514 L 603.285 -24.601 L 595.109 -24.601 L 595.109 0 L 587.59 0 L 587.59 -24.601 L 582.188 -24.601 L 582.188 -30.514 L 587.59 -30.514 Z" transform="matrix(0.19178, 0, 0, 0.191782, 98.635094, 73.054558)" style="fill: rgb(51, 63, 72); white-space: pre;"/>
      <path d="M 624.144 0.73 Q 619.837 0.73 616.333 -1.058 Q 612.829 -2.847 610.785 -6.424 Q 608.741 -10.001 608.741 -15.257 Q 608.741 -20.44 610.894 -24.163 Q 613.048 -27.886 616.588 -29.893 Q 620.129 -31.901 624.29 -31.901 Q 628.67 -31.901 631.48 -30.039 Q 634.29 -28.178 635.896 -25.696 L 635.385 -24.528 L 636.115 -30.587 L 643.05 -30.587 L 643.05 0 L 635.531 0 L 635.531 -7.665 L 636.334 -5.84 Q 636.042 -5.256 635.093 -4.197 Q 634.144 -3.139 632.575 -1.971 Q 631.006 -0.803 628.925 -0.036 Q 626.845 0.73 624.144 0.73 Z M 626.188 -5.402 Q 628.597 -5.402 630.495 -6.278 Q 632.393 -7.154 633.706 -8.76 Q 635.02 -10.366 635.531 -12.556 L 635.531 -18.907 Q 634.947 -20.951 633.56 -22.447 Q 632.174 -23.944 630.239 -24.82 Q 628.305 -25.696 625.969 -25.696 Q 623.341 -25.696 621.151 -24.418 Q 618.961 -23.141 617.647 -20.878 Q 616.333 -18.615 616.333 -15.622 Q 616.333 -12.775 617.683 -10.439 Q 619.034 -8.103 621.297 -6.752 Q 623.56 -5.402 626.188 -5.402 Z" transform="matrix(0.19178, 0, 0, 0.191782, 98.635094, 73.054558)" style="fill: rgb(51, 63, 72); white-space: pre;"/>
      <path d="M 661.266 -30.587 L 661.996 -21.827 L 661.631 -22.995 Q 662.872 -25.769 665.135 -27.74 Q 667.398 -29.711 669.843 -30.769 Q 672.289 -31.828 673.968 -31.828 L 673.603 -24.382 Q 670.099 -24.601 667.507 -23.068 Q 664.916 -21.535 663.456 -18.98 Q 661.996 -16.425 661.996 -13.505 L 661.996 0 L 654.55 0 L 654.55 -30.587 Z" transform="matrix(0.19178, 0, 0, 0.191782, 98.635094, 73.054558)" style="fill: rgb(51, 63, 72); white-space: pre;"/>
    </g>
  </g>
  <path d="M 103.45 51.28 Q 102.1 51.28 100.925 50.555 Q 99.75 49.83 99.75 48.68 Q 99.75 48.08 100 47.305 Q 100.25 46.53 100.45 45.88 Q 102.05 41.03 103.425 36.83 Q 104.8 32.63 106.2 28.68 Q 107.6 24.73 109.15 20.78 Q 110.7 16.83 112.65 12.53 Q 110.75 12.93 109.3 13.58 Q 107.85 14.23 106.975 14.73 Q 106.1 15.23 105.75 15.23 Q 105.55 15.23 105.15 14.98 Q 104.75 14.73 104.425 14.355 Q 104.1 13.98 104.1 13.68 Q 105.45 13.13 107.25 12.48 Q 109.05 11.83 111.15 11.38 Q 113.25 10.93 115.4 10.93 Q 117.65 10.93 119.975 11.53 Q 122.3 12.13 124.25 13.355 Q 126.2 14.58 127.4 16.405 Q 128.6 18.23 128.6 20.63 Q 128.6 23.23 127.425 25.13 Q 126.25 27.03 124.325 28.305 Q 122.4 29.58 120.175 30.355 Q 117.95 31.13 115.75 31.555 Q 113.55 31.98 111.8 32.105 Q 110.05 32.23 109.25 32.23 L 108.8 32.23 Q 107.35 37.33 105.975 42.305 Q 104.6 47.28 103.45 51.28 Z M 109.1 31.18 Q 111.85 31.03 114.675 30.28 Q 117.5 29.53 119.825 28.13 Q 122.15 26.73 123.575 24.655 Q 125 22.58 125 19.78 Q 125 17.18 123.7 15.53 Q 122.4 13.88 120.325 13.055 Q 118.25 12.23 115.9 12.23 Q 114.1 15.83 112.375 20.805 Q 110.65 25.78 109.1 31.18 Z" style="fill: rgb(51, 63, 72); line-height: 383.769px; white-space: pre;"/>
  <path d="M 124.395 49.28 Q 122.795 49.28 121.67 48.23 Q 120.545 47.18 120.545 45.03 Q 120.545 43.28 121.345 41.205 Q 122.145 39.13 123.545 37.105 Q 124.945 35.08 126.72 33.43 Q 128.495 31.78 130.495 30.78 Q 132.495 29.78 134.495 29.78 Q 136.495 29.78 137.87 30.83 Q 139.245 31.88 139.245 33.63 Q 139.245 34.88 138.47 35.38 Q 137.695 35.88 136.545 35.83 Q 136.645 35.38 136.72 34.93 Q 136.795 34.48 136.795 34.03 Q 136.795 32.93 136.295 32.105 Q 135.795 31.28 134.445 31.28 Q 133.045 31.28 131.595 32.255 Q 130.145 33.23 128.82 34.83 Q 127.495 36.43 126.445 38.305 Q 125.395 40.18 124.795 41.98 Q 124.195 43.78 124.195 45.23 Q 124.195 47.08 125.445 47.08 Q 126.595 47.08 127.97 45.98 Q 129.345 44.88 130.77 43.205 Q 132.195 41.53 133.495 39.73 Q 134.795 37.93 135.795 36.53 Q 135.945 36.23 136.095 36.23 Q 136.345 36.28 136.845 36.43 Q 137.345 36.58 137.745 36.88 Q 138.145 37.18 138.145 37.63 Q 138.145 38.08 137.72 38.855 Q 137.295 39.63 136.72 40.605 Q 136.145 41.58 135.72 42.58 Q 135.295 43.58 135.295 44.43 Q 135.295 45.18 135.67 45.855 Q 136.045 46.53 136.895 46.53 Q 138.195 46.53 140.395 44.605 Q 142.595 42.68 144.845 38.63 L 145.495 39.28 Q 144.395 41.98 142.745 44.055 Q 141.095 46.13 139.22 47.28 Q 137.345 48.43 135.495 48.43 Q 133.595 48.43 132.67 47.255 Q 131.745 46.08 131.745 44.73 Q 131.745 44.48 131.77 44.23 Q 131.795 43.98 131.845 43.68 Q 129.745 46.43 127.995 47.855 Q 126.245 49.28 124.395 49.28 Z" style="fill: rgb(51, 63, 72); line-height: 383.769px; white-space: pre;"/>
  <path d="M 149.243 49.48 Q 146.843 49.48 145.418 48.455 Q 143.993 47.43 143.393 45.905 Q 142.793 44.38 142.793 42.83 Q 142.793 41.33 143.193 40.53 Q 143.593 39.73 144.168 39.355 Q 144.743 38.98 145.268 38.78 Q 145.793 38.58 146.043 38.33 Q 147.443 36.83 148.718 35.055 Q 149.993 33.28 150.943 31.23 L 150.943 30.68 Q 150.943 28.78 151.593 27.98 Q 152.243 27.18 152.993 27.18 Q 153.443 27.18 153.668 27.405 Q 153.893 27.63 153.943 27.93 Q 153.943 28.23 153.793 28.73 Q 153.643 29.23 153.643 30.03 Q 153.643 31.63 154.318 33.555 Q 154.993 35.48 155.668 37.605 Q 156.343 39.73 156.343 42.03 Q 156.343 42.63 156.268 43.23 Q 156.193 43.83 156.093 44.33 Q 157.743 43.98 159.293 42.705 Q 160.843 41.43 162.243 38.68 L 162.743 39.18 Q 161.793 41.93 159.918 43.455 Q 158.043 44.98 155.743 45.38 Q 154.943 47.48 153.193 48.48 Q 151.443 49.48 149.243 49.48 Z M 149.193 47.58 Q 149.943 47.58 150.893 47.155 Q 151.843 46.73 152.343 45.28 Q 150.293 44.88 148.643 43.655 Q 146.993 42.43 146.193 41.23 Q 145.193 41.28 145.193 42.83 Q 145.193 44.58 146.243 46.08 Q 147.293 47.58 149.193 47.58 Z M 152.643 44.28 Q 152.743 43.83 152.793 43.305 Q 152.843 42.78 152.843 42.18 Q 152.843 39.88 152.268 37.58 Q 151.693 35.28 151.243 33.18 Q 150.193 34.93 148.943 36.68 Q 147.693 38.43 146.543 39.58 Q 147.343 41.08 148.893 42.43 Q 150.443 43.78 152.643 44.28 Z" style="fill: rgb(51, 63, 72); line-height: 383.769px; white-space: pre;"/>
  <path d="M 163.687 49.28 Q 162.087 49.28 160.962 48.23 Q 159.837 47.18 159.837 45.03 Q 159.837 43.28 160.637 41.205 Q 161.437 39.13 162.837 37.105 Q 164.237 35.08 166.012 33.43 Q 167.787 31.78 169.787 30.78 Q 171.787 29.78 173.787 29.78 Q 175.787 29.78 177.162 30.83 Q 178.537 31.88 178.537 33.63 Q 178.537 34.88 177.762 35.38 Q 176.987 35.88 175.837 35.83 Q 175.937 35.38 176.012 34.93 Q 176.087 34.48 176.087 34.03 Q 176.087 32.93 175.587 32.105 Q 175.087 31.28 173.737 31.28 Q 172.337 31.28 170.887 32.255 Q 169.437 33.23 168.112 34.83 Q 166.787 36.43 165.737 38.305 Q 164.687 40.18 164.087 41.98 Q 163.487 43.78 163.487 45.23 Q 163.487 47.08 164.737 47.08 Q 165.887 47.08 167.262 45.98 Q 168.637 44.88 170.062 43.205 Q 171.487 41.53 172.787 39.73 Q 174.087 37.93 175.087 36.53 Q 175.237 36.23 175.387 36.23 Q 175.637 36.28 176.137 36.43 Q 176.637 36.58 177.037 36.88 Q 177.437 37.18 177.437 37.63 Q 177.437 38.08 177.012 38.855 Q 176.587 39.63 176.012 40.605 Q 175.437 41.58 175.012 42.58 Q 174.587 43.58 174.587 44.43 Q 174.587 45.18 174.962 45.855 Q 175.337 46.53 176.187 46.53 Q 177.487 46.53 179.687 44.605 Q 181.887 42.68 184.137 38.63 L 184.787 39.28 Q 183.687 41.98 182.037 44.055 Q 180.387 46.13 178.512 47.28 Q 176.637 48.43 174.787 48.43 Q 172.887 48.43 171.962 47.255 Q 171.037 46.08 171.037 44.73 Q 171.037 44.48 171.062 44.23 Q 171.087 43.98 171.137 43.68 Q 169.037 46.43 167.287 47.855 Q 165.537 49.28 163.687 49.28 Z" style="fill: rgb(51, 63, 72); line-height: 383.769px; white-space: pre;"/>
  <path d="M 185.184 60.93 Q 184.034 60.93 183.084 60.23 Q 182.134 59.53 182.134 57.93 Q 182.134 56.38 183.059 55.105 Q 183.984 53.83 185.459 52.755 Q 186.934 51.68 188.659 50.78 Q 190.384 49.88 191.984 49.08 Q 192.634 47.48 193.209 45.605 Q 193.784 43.73 194.334 41.53 Q 192.484 44.08 190.459 45.78 Q 188.434 47.48 186.384 47.48 Q 184.484 47.48 183.459 46.105 Q 182.434 44.73 182.434 42.53 Q 182.434 39.93 183.709 37.58 Q 184.984 35.23 187.059 33.43 Q 189.134 31.63 191.459 30.605 Q 193.784 29.58 195.884 29.58 Q 197.384 29.58 198.059 30.08 Q 198.734 30.58 198.734 31.28 Q 198.734 31.78 198.459 32.055 Q 198.184 32.33 198.084 32.38 Q 197.734 31.93 197.234 31.755 Q 196.734 31.58 195.984 31.58 Q 194.034 31.58 192.209 32.73 Q 190.384 33.88 189.009 35.655 Q 187.634 37.43 186.809 39.33 Q 185.984 41.23 185.984 42.78 Q 185.984 43.93 186.459 44.505 Q 186.934 45.08 187.684 45.08 Q 189.084 45.08 191.109 43.205 Q 193.134 41.33 195.034 38.63 Q 195.134 38.03 195.259 37.555 Q 195.384 37.08 195.534 36.38 Q 195.784 35.28 196.409 34.33 Q 197.034 33.38 198.284 33.38 Q 198.534 33.38 198.809 33.43 Q 199.084 33.48 199.434 33.58 Q 199.434 34.38 198.959 36.48 Q 198.484 38.58 197.609 41.38 Q 196.734 44.18 195.634 47.13 Q 197.234 46.38 198.834 45.155 Q 200.434 43.93 201.734 42.28 Q 203.034 40.63 203.784 38.68 L 204.534 39.33 Q 203.734 41.58 202.084 43.455 Q 200.434 45.33 198.534 46.68 Q 196.634 48.03 195.034 48.78 Q 193.684 52.13 192.109 54.88 Q 190.534 57.63 188.834 59.28 Q 187.134 60.93 185.184 60.93 Z M 185.034 59.08 Q 185.984 59.08 187.659 57.205 Q 189.334 55.33 191.284 50.78 Q 189.334 51.73 187.659 52.78 Q 185.984 53.83 184.934 54.98 Q 183.884 56.13 183.884 57.48 Q 183.884 58.23 184.209 58.655 Q 184.534 59.08 185.034 59.08 Z" style="fill: rgb(51, 63, 72); line-height: 383.769px; white-space: pre;"/>
  <path d="M 204.884 60.93 Q 203.734 60.93 202.784 60.23 Q 201.834 59.53 201.834 57.93 Q 201.834 56.38 202.759 55.105 Q 203.684 53.83 205.159 52.755 Q 206.634 51.68 208.359 50.78 Q 210.084 49.88 211.684 49.08 Q 212.334 47.48 212.909 45.605 Q 213.484 43.73 214.034 41.53 Q 212.184 44.08 210.159 45.78 Q 208.134 47.48 206.084 47.48 Q 204.184 47.48 203.159 46.105 Q 202.134 44.73 202.134 42.53 Q 202.134 39.93 203.409 37.58 Q 204.684 35.23 206.759 33.43 Q 208.834 31.63 211.159 30.605 Q 213.484 29.58 215.584 29.58 Q 217.084 29.58 217.759 30.08 Q 218.434 30.58 218.434 31.28 Q 218.434 31.78 218.159 32.055 Q 217.884 32.33 217.784 32.38 Q 217.434 31.93 216.934 31.755 Q 216.434 31.58 215.684 31.58 Q 213.734 31.58 211.909 32.73 Q 210.084 33.88 208.709 35.655 Q 207.334 37.43 206.509 39.33 Q 205.684 41.23 205.684 42.78 Q 205.684 43.93 206.159 44.505 Q 206.634 45.08 207.384 45.08 Q 208.784 45.08 210.809 43.205 Q 212.834 41.33 214.734 38.63 Q 214.834 38.03 214.959 37.555 Q 215.084 37.08 215.234 36.38 Q 215.484 35.28 216.109 34.33 Q 216.734 33.38 217.984 33.38 Q 218.234 33.38 218.509 33.43 Q 218.784 33.48 219.134 33.58 Q 219.134 34.38 218.659 36.48 Q 218.184 38.58 217.309 41.38 Q 216.434 44.18 215.334 47.13 Q 216.934 46.38 218.534 45.155 Q 220.134 43.93 221.434 42.28 Q 222.734 40.63 223.484 38.68 L 224.234 39.33 Q 223.434 41.58 221.784 43.455 Q 220.134 45.33 218.234 46.68 Q 216.334 48.03 214.734 48.78 Q 213.384 52.13 211.809 54.88 Q 210.234 57.63 208.534 59.28 Q 206.834 60.93 204.884 60.93 Z M 204.734 59.08 Q 205.684 59.08 207.359 57.205 Q 209.034 55.33 210.984 50.78 Q 209.034 51.73 207.359 52.78 Q 205.684 53.83 204.634 54.98 Q 203.584 56.13 203.584 57.48 Q 203.584 58.23 203.909 58.655 Q 204.234 59.08 204.734 59.08 Z" style="fill: rgb(51, 63, 72); line-height: 383.769px; white-space: pre;"/>
  <path d="M 228.021 49.13 Q 224.921 49.13 223.321 47.43 Q 221.721 45.73 221.721 43.23 Q 221.721 41.03 222.846 38.53 Q 223.971 36.03 225.846 33.83 Q 227.721 31.63 229.996 30.28 Q 232.271 28.93 234.521 28.93 Q 235.721 28.93 236.746 29.555 Q 237.771 30.18 237.771 32.08 Q 237.771 33.98 236.671 35.63 Q 235.571 37.28 233.721 38.58 Q 231.871 39.88 229.696 40.705 Q 227.521 41.53 225.321 41.78 Q 225.221 42.18 225.196 42.555 Q 225.171 42.93 225.171 43.33 Q 225.171 43.93 225.296 44.63 Q 225.421 45.33 225.846 45.98 Q 226.271 46.63 227.046 47.03 Q 227.821 47.43 229.071 47.43 Q 231.221 47.43 233.321 46.23 Q 235.421 45.03 237.246 43.055 Q 239.071 41.08 240.321 38.68 L 241.071 39.23 Q 239.721 42.23 237.621 44.455 Q 235.521 46.68 233.046 47.905 Q 230.571 49.13 228.021 49.13 Z M 225.671 40.53 Q 227.021 40.18 228.671 39.33 Q 230.321 38.48 231.871 37.305 Q 233.421 36.13 234.421 34.705 Q 235.421 33.28 235.421 31.73 Q 235.421 31.18 235.221 30.93 Q 235.021 30.68 234.421 30.68 Q 233.271 30.68 231.946 31.555 Q 230.621 32.43 229.396 33.88 Q 228.171 35.33 227.171 37.055 Q 226.171 38.78 225.671 40.53 Z" style="fill: rgb(51, 63, 72); line-height: 383.769px; white-space: pre;"/>
  <path fill-rule="evenodd" clip-rule="evenodd" d="M 36.257 18.332 C 37.118 17.571 38.012 16.815 38.954 16.064 C 42.954 11.88 43.533 6.522 40.695 0 C 40.158 2.625 39.001 5.076 37.207 7.353 C 35.127 9.025 34.431 11.725 35.127 15.444 C 37.024 14.12 38.737 11.49 40.271 7.551 C 38.13 15.998 34.483 16.294 29.522 21.854 C 29.776 17.975 27.856 14.458 22.369 12.631 C 23.767 14.049 24.454 15.482 24.435 16.928 C 24.232 19.642 25.503 21.408 27.32 21.995 C 27.503 20.835 27.433 19.205 27.028 17.581 C 28.148 20.36 28.374 21.887 28.27 23.328 C 28.167 23.586 23.136 28.93 20.679 39.232 C 17.258 31.367 10.415 26.61 0 31.884 C 3.003 31.898 5.266 32.687 6.791 34.255 C 9.464 37.382 12.712 37.903 15.281 36.575 C 14.246 35.133 12.429 33.466 10.264 32.161 C 17.079 35.063 17.743 36.946 20.373 40.655 C 19.197 46.769 19.743 53.066 21.926 58.799 C 17.823 54.667 12.834 55.831 7.441 62.462 C 9.954 61.513 12.095 61.457 13.86 62.283 C 17.079 64.039 19.55 63.96 21.282 62.03 C 19.959 61.156 18.194 60.518 15.973 60.119 C 18.99 60.039 21.635 61.02 23.898 63.053 C 29.499 73.158 40.229 80 52.55 80 C 70.655 80 85.333 65.237 85.333 47.022 C 85.333 30.034 72.565 16.05 56.159 14.242 C 71.088 16.529 82.143 28.376 82.143 43.811 C 82.143 60.25 68.895 73.581 52.555 73.581 C 39.984 73.581 29.245 65.692 24.957 54.573 C 24.468 49.53 26.397 44.576 30.948 39.899 C 32.506 38.298 34.685 37.429 37.104 36.589 C 35.419 37.875 33.527 39.307 31.424 40.89 C 38.233 42.937 38.125 37.096 45.086 36.819 C 37.457 31.813 32.266 32.813 29.734 38.688 C 26.642 41.806 24.618 45.205 23.522 49.614 C 21.027 36.899 27 21.224 41.052 19.252 C 39.015 19.839 37.179 20.792 36.026 21.736 C 37.829 23.375 40.577 23.661 43.42 21.713 C 44.996 20.774 47.006 20.623 49.444 21.271 C 46.408 18.529 40.064 15.5 36.257 18.332 Z" clip-path="url(#clip0_596_13)" style="fill: rgb(223, 73, 124);"/>
</svg>